<?xml version="1.0" standalone="no"?>
<!DOCTYPE svg PUBLIC "-//W3C//DTD SVG 20010904//EN"
 "http://www.w3.org/TR/2001/REC-SVG-20010904/DTD/svg10.dtd">
<svg version="1.0" xmlns="http://www.w3.org/2000/svg"
 width="512.000000pt" height="512.000000pt" viewBox="0 0 512.000000 512.000000"
 preserveAspectRatio="xMidYMid meet">
<metadata>
Created by potrace 1.11, written by Peter Selinger 2001-2013
</metadata>
<g transform="translate(0.000000,512.000000) scale(0.100000,-0.100000)"
fill="#000000" stroke="none">
<path d="M1528 4972 c-10 -2 -19 -10 -19 -18 -1 -8 -2 -20 -3 -26 -2 -12 21
-56 34 -68 33 -29 87 -113 124 -190 46 -98 146 -360 146 -383 0 -7 5 -18 12
-25 7 -7 9 -12 5 -12 -3 0 -2 -12 4 -27 6 -16 12 -35 14 -43 2 -8 8 -29 14
-47 5 -17 7 -34 3 -37 -3 -3 0 -6 7 -6 7 0 11 -6 8 -14 -3 -7 -2 -17 3 -22 7
-8 19 -57 22 -91 1 -7 4 -13 8 -13 3 0 5 -13 4 -30 -1 -16 3 -30 8 -30 6 0 8
-9 5 -20 -3 -11 -1 -20 4 -20 6 0 9 -6 8 -12 -3 -15 8 -82 26 -160 24 -104 24
-415 0 -523 -4 -16 -8 -46 -10 -65 -1 -19 -4 -35 -5 -35 -3 0 -10 -39 -14 -80
-3 -22 -5 -40 -6 -40 -1 0 -3 -11 -4 -25 0 -14 -5 -31 -9 -37 -5 -8 -4 -13 3
-13 7 0 8 -6 1 -18 -7 -13 -6 -23 1 -30 9 -9 9 -12 -1 -12 -7 0 -9 -5 -5 -11
10 -16 12 -109 2 -109 -4 0 -8 4 -8 10 0 9 -126 137 -183 186 -46 38 -171 93
-237 103 -109 16 -271 -8 -342 -52 -53 -33 -108 -84 -108 -102 0 -8 -4 -15 -9
-15 -8 0 -18 -25 -21 -55 -1 -5 -6 -15 -12 -22 -5 -7 -7 -17 -3 -23 3 -5 -3
-11 -14 -11 -36 -2 -71 -14 -127 -41 l-42 -21 -73 29 c-41 15 -78 29 -84 30
-5 1 -37 11 -70 22 -89 30 -253 74 -281 76 -13 0 -24 4 -24 7 0 3 -6 6 -12 7
-29 3 -63 10 -63 11 0 9 -88 6 -99 -3 -34 -25 -25 -125 10 -112 8 3 14 2 14
-2 0 -4 22 -9 49 -10 27 -1 80 -9 118 -18 37 -9 77 -18 88 -20 11 -1 21 -3 23
-4 1 -2 5 -3 10 -4 45 -12 181 -50 240 -68 l33 -10 -41 -29 c-22 -16 -43 -29
-47 -29 -5 -1 -20 -17 -35 -37 -21 -27 -25 -39 -17 -49 6 -8 14 -12 18 -10 3
2 29 7 56 10 28 3 70 9 95 13 25 3 73 7 107 7 35 1 63 4 63 8 0 12 63 -3 98
-24 17 -11 32 -17 32 -13 0 3 15 -5 33 -19 19 -15 41 -26 50 -26 22 0 27 -21
42 -165 5 -55 14 -95 25 -115 7 -12 4 -23 -10 -38 -11 -12 -20 -24 -20 -28 0
-4 -11 -16 -23 -28 -41 -36 -101 -147 -112 -206 -2 -8 -4 -15 -5 -15 -4 0 -13
-65 -14 -102 -1 -24 -4 -43 -8 -43 -4 0 -6 -9 -5 -20 1 -11 4 -20 7 -20 3 0 5
-18 4 -40 0 -22 4 -40 9 -40 5 0 4 -7 -3 -15 -9 -10 -9 -15 -1 -15 6 0 10 -3
10 -8 -1 -4 0 -9 1 -12 1 -3 4 -18 6 -35 3 -16 8 -32 12 -35 4 -3 8 -12 10
-20 2 -8 13 -34 25 -57 24 -46 44 -50 93 -18 13 8 24 13 24 10 0 -3 18 6 40
20 22 14 43 25 48 25 4 0 23 13 42 30 19 16 39 29 44 30 12 0 116 109 116 121
0 5 7 9 15 9 8 0 15 -4 15 -8 0 -17 162 -173 235 -227 22 -16 42 -31 45 -34 9
-10 45 -31 63 -37 9 -4 17 -10 17 -14 0 -5 18 -16 40 -26 22 -10 40 -22 40
-27 0 -4 4 -5 10 -2 5 3 10 1 10 -5 0 -6 5 -8 10 -5 6 3 13 0 16 -8 2 -7 10
-14 17 -14 7 0 32 -10 56 -21 25 -12 53 -22 63 -22 10 0 18 -4 18 -8 0 -7 78
-33 105 -35 13 -1 30 -18 37 -37 3 -8 -1 -31 -9 -50 -8 -19 -14 -37 -14 -40 0
-3 -4 -21 -9 -40 -5 -19 -11 -48 -14 -65 -2 -16 -5 -30 -6 -30 -1 0 -3 -46 -5
-102 -2 -57 1 -103 5 -103 5 0 6 -8 3 -19 -6 -22 31 -112 66 -161 31 -45 182
-190 197 -190 7 0 15 -7 18 -16 3 -8 10 -12 16 -9 5 3 10 2 10 -3 0 -5 20 -20
45 -33 25 -13 45 -27 45 -31 0 -5 6 -8 14 -8 7 0 24 -8 37 -18 33 -26 69 -34
69 -16 0 8 4 14 8 14 4 0 9 8 10 18 2 21 10 57 12 57 2 0 10 36 12 58 1 9 6
17 11 17 5 0 4 7 -3 15 -8 9 -8 15 -2 15 6 0 11 8 11 18 0 28 11 153 15 179 3
12 2 25 -2 27 -4 2 -7 25 -6 50 0 25 -2 46 -6 46 -3 0 -7 14 -8 32 -2 17 -6
36 -11 42 -5 6 -7 19 -6 29 2 9 -1 17 -6 17 -6 0 -7 5 -4 10 3 6 2 10 -4 10
-5 0 -13 10 -17 22 -15 49 -92 139 -173 205 l-24 19 34 -3 c19 -2 84 -5 144
-8 61 -2 112 -5 115 -6 3 -1 9 -1 14 0 6 1 55 4 110 6 117 5 261 19 261 25 0
1 10 3 23 4 14 2 36 -10 60 -33 51 -49 134 -121 174 -151 18 -14 40 -33 50
-43 10 -9 22 -17 26 -17 5 0 22 -13 38 -30 16 -16 33 -30 37 -30 4 0 13 -5 20
-10 30 -25 147 -98 147 -92 0 4 4 2 8 -4 4 -6 34 -25 67 -43 33 -18 65 -37 70
-41 6 -5 12 -8 15 -8 5 0 39 -14 97 -39 112 -48 237 -72 307 -59 62 12 84 74
51 149 -9 22 -7 24 30 30 25 4 49 12 95 33 3 1 15 5 28 9 12 4 22 11 22 15 0
5 9 11 20 15 33 11 130 114 130 139 0 8 4 17 8 20 17 10 3 98 -23 141 -23 40
-34 78 -19 62 4 -3 18 3 32 13 13 11 29 20 34 20 5 0 23 13 41 30 18 16 36 30
40 30 15 0 89 84 105 120 24 55 23 60 -11 61 -109 1 -265 12 -377 25 -103 12
-258 34 -300 43 -141 29 -195 43 -207 54 -7 5 -13 7 -13 3 0 -9 -126 39 -208
79 -40 19 -76 35 -81 35 -5 0 -14 7 -21 15 -7 8 -21 15 -30 15 -10 0 -20 3
-22 8 -1 4 -65 39 -140 77 -132 67 -171 92 -95 60 82 -34 180 -6 254 72 28 29
107 146 109 162 3 25 25 58 38 58 9 0 16 -4 16 -8 0 -9 72 -23 130 -24 46 -1
127 16 152 31 7 5 18 9 25 10 20 3 97 61 140 106 51 53 87 120 92 171 1 4 17
15 36 24 19 9 35 20 35 25 0 4 7 8 15 8 21 0 173 155 216 220 49 74 79 128 94
170 7 19 19 49 25 65 7 17 14 37 16 45 1 8 8 44 14 80 14 76 14 260 0 260 -3
0 -7 14 -8 31 -1 18 -6 39 -11 47 -6 11 -1 28 17 54 14 22 27 51 29 66 2 15 5
36 7 47 5 30 -18 114 -44 163 -25 47 -94 112 -120 112 -29 0 -30 12 -4 43 14
17 30 41 35 54 5 13 14 23 20 23 7 0 9 3 6 7 -4 3 -3 11 2 17 9 11 30 82 38
127 10 62 8 179 -3 246 -25 149 -134 310 -227 335 -43 11 -43 12 -55 72 -11
58 -49 151 -75 183 -34 41 -91 93 -103 93 -8 0 -14 4 -14 9 0 14 -51 18 -80 7
-90 -36 -130 -160 -145 -447 -7 -134 -14 -215 -20 -239 -3 -14 -8 -35 -11 -47
-2 -12 -9 -35 -15 -50 -6 -16 -10 -29 -9 -31 2 -3 -16 -53 -35 -97 -8 -16 -11
-33 -9 -37 3 -4 1 -8 -4 -8 -5 0 -17 -20 -28 -45 -10 -25 -22 -45 -27 -45 -4
0 -6 -4 -3 -8 5 -9 -129 -213 -168 -255 -14 -15 -26 -32 -26 -37 0 -5 -11 -17
-25 -26 -14 -9 -25 -23 -25 -31 0 -8 -4 -11 -10 -8 -5 3 -10 1 -10 -5 0 -13
-139 -151 -192 -190 -21 -15 -34 -30 -31 -34 3 -3 -1 -6 -10 -6 -9 0 -17 -4
-17 -9 0 -4 -37 -35 -81 -67 -45 -32 -87 -65 -95 -71 -7 -7 -15 -13 -19 -13
-7 0 -61 -38 -89 -62 -10 -10 -22 -15 -26 -13 -4 3 -13 -2 -20 -10 -7 -8 -19
-15 -26 -15 -8 0 -14 -4 -14 -9 0 -5 -8 -11 -17 -14 -10 -4 -31 -12 -48 -20
l-30 -14 -1 96 c-1 85 -11 262 -20 346 -3 29 -10 79 -20 140 -2 17 -7 50 -10
75 -9 83 -16 113 -29 122 -6 5 -5 8 2 8 12 0 11 9 -4 48 -3 9 -7 28 -9 42 -1
14 -3 25 -4 25 -2 0 -10 32 -14 60 -10 57 -95 325 -108 343 -6 6 -8 12 -5 12
3 0 -3 21 -14 48 -52 123 -102 202 -128 202 -6 0 -11 4 -11 9 0 16 -37 19 -75
5 -22 -7 -56 -33 -81 -61 -37 -41 -44 -45 -44 -26 0 12 -5 25 -11 28 -6 4 -8
13 -5 21 3 7 1 16 -5 20 -6 3 -8 12 -5 19 2 7 1 16 -3 21 -5 5 -16 37 -27 72
-10 34 -22 62 -26 62 -5 0 -6 5 -2 11 3 6 2 14 -4 18 -5 3 -12 17 -13 31 -2
14 -7 27 -10 30 -3 3 -22 39 -43 80 -39 77 -82 122 -119 125 -70 5 -133 -96
-142 -226 -4 -50 -15 -51 -60 -4 -24 25 -47 45 -50 45 -5 0 -38 26 -66 52 -10
9 -30 25 -46 35 -15 9 -32 23 -36 30 -5 8 -12 11 -18 8 -5 -4 -9 -1 -9 5 0 6
-4 8 -10 5 -5 -3 -10 -1 -10 5 0 6 -4 8 -10 5 -5 -3 -10 -2 -10 2 0 20 -101
44 -142 35z"/>
</g>
</svg>
